<?xml version="1.0" encoding="UTF-8"?>
<svg width="24px" height="30px" viewBox="0 0 24 30" version="1.1" xmlns="http://www.w3.org/2000/svg" xmlns:xlink="http://www.w3.org/1999/xlink">
    <title>DC82727D-C0FE-4696-95FC-39699E53BEFE</title>
    <g id="Page-1" stroke="none" stroke-width="1" fill="none" fill-rule="evenodd">
        <g id="Home--Main" transform="translate(-986.000000, -1639.000000)" fill="#FFFFFF" fill-rule="nonzero">
            <g id="features-copy-2" transform="translate(928.000000, 1588.000000)">
                <g id="Group" transform="translate(31.000000, 29.000000)">
                    <g id="icon/maps/track_24px" transform="translate(27.000000, 22.000000)">
                        <path d="M16.1255222,0.0833333333 L23.0625,7.42836869 L23.0625,26.3823529 C23.0625,27.8348077 21.9504665,29.0122549 20.5787037,29.0122549 L3.19212963,29.0122549 C1.82036681,29.0122549 0.708333333,27.8348077 0.708333333,26.3823529 L0.708333333,2.71323529 C0.708333333,1.26078055 1.82036681,0.0833333333 3.19212963,0.0833333333 L16.1255222,0.0833333333 Z M13.1263333,2.71233333 L3.19212963,2.71323529 L3.19212963,26.3823529 L20.5787037,26.3823529 L20.5783333,10.6023333 L15.6111111,10.6029412 C14.2393483,10.6029412 13.1273148,9.42549396 13.1273148,7.97303922 L13.1263333,2.71233333 Z M15.9748547,13.6179834 L17.7311639,15.4776049 L10.6435185,22.9821705 L6.03966947,18.1075068 L7.79597868,16.2478853 L10.6435185,19.2629275 L15.9748547,13.6179834 Z M15.6103333,3.25633333 L15.6111111,7.97303922 L20.0633333,7.97233333 L15.6103333,3.25633333 Z" id="icon"></path>
                    </g>
                </g>
            </g>
        </g>
    </g>
</svg>