<?xml version="1.0" encoding="UTF-8"?>
<svg width="25px" height="29px" viewBox="0 0 25 29" version="1.1" xmlns="http://www.w3.org/2000/svg" xmlns:xlink="http://www.w3.org/1999/xlink">
    <title>54D7D61B-E749-4B5D-86B2-AB1921BC13BB</title>
    <defs>
        <path d="M9.64556561,1.38682736 C11.1506562,-0.118323649 13.5909861,-0.118322365 15.0961667,1.38682736 L15.0961667,1.38682736 L24.0625001,10.353135 L24.0625001,28.7421737 L15.0694445,28.7421737 L15.0694445,21.0338403 C15.0694445,19.6147361 13.9191042,18.4643959 12.5,18.4643959 C11.0808958,18.4643959 9.93055554,19.6147361 9.93055554,21.0338403 L9.93055554,21.0338403 L9.93055554,28.7421737 L0.937499942,28.7421737 L0.937499942,10.094893 Z M11.4624583,3.20369439 L3.5069444,11.1591955 L3.5069444,26.1727292 L7.36111109,26.1727292 L7.36111109,21.0338403 C7.36111109,18.1957604 9.66186874,15.8949514 12.5,15.8949514 C15.3380799,15.8949514 17.6388889,18.1957604 17.6388889,21.0338403 L17.6388889,26.1727292 L21.4930556,26.1727292 L21.4930556,11.4174375 L13.2793125,3.20369439 C12.7776285,2.70198466 11.9641424,2.70198466 11.4624583,3.20369439 Z" id="path-1"></path>
    </defs>
    <g id="Page-1" stroke="none" stroke-width="1" fill="none" fill-rule="evenodd">
        <g id="Home--Main" transform="translate(-399.000000, -2041.000000)">
            <g id="features-copy-3" transform="translate(342.000000, 1989.000000)">
                <g id="Group" transform="translate(31.000000, 29.000000)">
                    <g id="icon/maps/track_24px" transform="translate(26.000000, 23.000000)">
                        <mask id="mask-2" fill="white">
                            <use xlink:href="#path-1"></use>
                        </mask>
                        <use id="home" fill="#FFFFFF" fill-rule="nonzero" xlink:href="#path-1"></use>
                    </g>
                </g>
            </g>
        </g>
    </g>
</svg>