<?xml version="1.0" encoding="UTF-8"?>
<svg width="22px" height="24px" viewBox="0 0 22 24" version="1.1" xmlns="http://www.w3.org/2000/svg" xmlns:xlink="http://www.w3.org/1999/xlink">
    <title>630C7018-DB41-4B06-A395-336F07914C29</title>
    <g id="Page-1" stroke="none" stroke-width="1" fill="none" fill-rule="evenodd">
        <g id="Home--Main" transform="translate(-245.000000, -692.000000)" fill="#FF5552" fill-rule="nonzero">
            <g id="Group-8" transform="translate(158.000000, 689.000000)">
                <g id="facebook-copy-2" transform="translate(87.000000, 3.000000)">
                    <path d="M15.0854167,0.875 C18.6165873,0.875 21.4791667,3.88824145 21.4791667,7.60526316 L21.4791667,16.5789474 C21.4791667,20.2959691 18.6165873,23.3092105 15.0854167,23.3092105 L6.56041667,23.3092105 C3.02924605,23.3092105 0.166666667,20.2959691 0.166666667,16.5789474 L0.166666667,7.60526316 C0.166666667,3.88824145 3.02924605,0.875 6.56041667,0.875 L15.0854167,0.875 Z M15.0854167,3.11842105 L6.56041667,3.11842105 C4.20630292,3.11842105 2.29791667,5.12724869 2.29791667,7.60526316 L2.29791667,16.5789474 C2.29791667,19.0569618 4.20630292,21.0657895 6.56041667,21.0657895 L15.0854167,21.0657895 C17.4395304,21.0657895 19.3479167,19.0569618 19.3479167,16.5789474 L19.3479167,7.60526316 C19.3479167,5.12724869 17.4395304,3.11842105 15.0854167,3.11842105 Z M10.8229167,6.48355263 C13.7655588,6.48355263 16.1510417,8.99458718 16.1510417,12.0921053 C16.1510417,15.1896234 13.7655588,17.7006579 10.8229167,17.7006579 C7.88027448,17.7006579 5.49479167,15.1896234 5.49479167,12.0921053 C5.49479167,8.99458718 7.88027448,6.48355263 10.8229167,6.48355263 Z M10.8229167,8.72697368 C9.05733136,8.72697368 7.62604167,10.2335944 7.62604167,12.0921053 C7.62604167,13.9506161 9.05733136,15.4572368 10.8229167,15.4572368 C12.588502,15.4572368 14.0197917,13.9506161 14.0197917,12.0921053 C14.0197917,10.2335944 12.588502,8.72697368 10.8229167,8.72697368 Z M16.1510417,5.36184211 C16.7395701,5.36184211 17.2166667,5.86404901 17.2166667,6.48355263 C17.2166667,7.10305625 16.7395701,7.60526316 16.1510417,7.60526316 C15.5625132,7.60526316 15.0854167,7.10305625 15.0854167,6.48355263 C15.0854167,5.86404901 15.5625132,5.36184211 16.1510417,5.36184211 Z" id="icon"></path>
                </g>
            </g>
        </g>
    </g>
</svg>