<?xml version="1.0" encoding="UTF-8"?>
<svg width="31px" height="31px" viewBox="0 0 31 31" version="1.1" xmlns="http://www.w3.org/2000/svg" xmlns:xlink="http://www.w3.org/1999/xlink">
    <title>83E77155-F22B-4906-8EDD-6948FD429E4E</title>
    <defs>
        <path d="M25.2039531,5.75582439 C24.6500537,6.30972374 24.6038954,7.17134496 25.0962504,7.78678869 C27.3272339,10.5870576 28.496577,14.4181948 27.4503227,18.4339652 C26.2348213,23.1267236 22.557545,26.6347528 17.8955588,27.5733045 C10.0486513,29.1272999 3.17106764,23.0651792 3.17106764,15.4798353 C3.17106764,9.20230926 7.86382606,4.03258195 13.9413329,3.27866339 L13.9413329,6.38665421 C9.1254857,7.20211715 5.58668427,11.7102424 6.35598893,16.8953558 C6.95604656,20.9111262 10.2948288,24.1422057 14.3259852,24.6345607 C19.9265231,25.3269349 24.7115981,20.9572844 24.7115981,15.4798353 C24.7115981,13.5565736 24.1269265,11.7871729 23.1268305,10.310108 C22.6037033,9.54080331 21.4805185,9.49464503 20.8189165,10.1408609 L20.8035304,10.156247 C20.2804032,10.6793742 20.234245,11.4948371 20.6342834,12.1102809 C21.557449,13.5258014 21.9267152,15.3413604 21.388202,17.2184638 C20.7881443,19.3263586 19.0187436,21.0034427 16.8646906,21.4804116 C12.8643063,22.3574189 9.32550491,19.3417447 9.32550491,15.4798353 C9.32550491,12.6180219 11.2949248,10.2331775 13.9413329,9.54080331 L13.9413329,12.8334272 C13.0181673,13.3719405 12.4027235,14.3412644 12.4027235,15.4798353 C12.4027235,17.1723055 13.7874719,18.5570539 15.4799422,18.5570539 C17.1724124,18.5570539 18.5571608,17.1723055 18.5571608,15.4798353 C18.5571608,14.3412644 17.9417171,13.3565544 17.0185515,12.8334272 L17.0185515,1.18615472 C17.0185515,0.586097084 16.5261965,0.0937421026 15.9261389,0.0937421026 C7.67919294,-0.213979761 0.570817898,6.34049593 0.124621196,14.5566697 C-0.429278158,24.6345607 8.4484976,32.7430318 18.6033191,30.5582066 C24.5731232,29.2811608 29.1889512,24.7114912 30.5275413,18.7570731 C31.6199539,13.8950677 30.2198194,9.27923972 27.4964809,5.87891313 C26.9271955,5.15576675 25.850169,5.10960847 25.2039531,5.75582439 Z" id="path-1"></path>
    </defs>
    <g id="Page-1" stroke="none" stroke-width="1" fill="none" fill-rule="evenodd">
        <g id="Home--Main" transform="translate(-200.000000, -1633.000000)">
            <g id="features" transform="translate(146.000000, 1582.000000)">
                <g id="Group" transform="translate(31.000000, 29.000000)">
                    <g id="icon/maps/track_24px" transform="translate(23.000000, 22.000000)">
                        <mask id="mask-2" fill="white">
                            <use xlink:href="#path-1"></use>
                        </mask>
                        <use fill="#FFFFFF" fill-rule="nonzero" xlink:href="#path-1"></use>
                    </g>
                </g>
            </g>
        </g>
    </g>
</svg>