<?xml version="1.0" encoding="UTF-8"?>
<svg width="27px" height="27px" viewBox="0 0 27 27" version="1.1" xmlns="http://www.w3.org/2000/svg" xmlns:xlink="http://www.w3.org/1999/xlink">
    <title>CE5E4592-70A6-474E-A1F6-D14D810FAEE2</title>
    <defs>
        <path d="M0.652777714,22.4930556 C0.652777714,24.6217119 2.37835237,26.3472223 4.5069444,26.3472223 L22.4930556,26.3472223 C24.6217119,26.3472223 26.3472223,24.6217119 26.3472223,22.4930556 L26.3472223,4.5069444 C26.3472223,2.37835237 24.6217119,0.652777714 22.4930556,0.652777714 L4.5069444,0.652777714 C2.37835237,0.652777714 0.652777714,2.37835237 0.652777714,4.5069444 L0.652777714,22.4930556 Z M23.7777778,22.4930556 C23.7777778,23.2026077 23.2026077,23.7777778 22.4930556,23.7777778 L4.5069444,23.7777778 C3.79741801,23.7777778 3.22222217,23.2026077 3.22222217,22.4930556 L3.22222217,4.5069444 C3.22222217,3.79741801 3.79741801,3.22222217 4.5069444,3.22222217 L10.9305555,3.22222217 L10.9305555,13.5142604 L14.0074653,13.5143889 L16.0695729,10.7560774 L18.1315521,13.5143889 L21.2084618,13.5143889 L21.2083334,3.22222217 L22.4930556,3.22222217 C23.2026077,3.22222217 23.7777778,3.79741801 23.7777778,4.5069444 L23.7777778,22.4930556 Z M18.6388889,3.22222217 L13.5,3.22222217 L13.5,10.0773073 L16.0695729,6.64017427 L18.6388889,10.0771274 L18.6388889,3.22222217 Z" id="path-1"></path>
    </defs>
    <g id="Page-1" stroke="none" stroke-width="1" fill="none" fill-rule="evenodd">
        <g id="Home--Main" transform="translate(-593.000000, -1641.000000)">
            <g id="features-copy" transform="translate(537.000000, 1588.000000)">
                <g id="Group" transform="translate(31.000000, 29.000000)">
                    <g id="icon/maps/track_24px" transform="translate(25.000000, 24.000000)">
                        <mask id="mask-2" fill="white">
                            <use xlink:href="#path-1"></use>
                        </mask>
                        <use id="album" fill="#FFFFFF" fill-rule="nonzero" xlink:href="#path-1"></use>
                    </g>
                </g>
            </g>
        </g>
    </g>
</svg>