<?xml version="1.0" encoding="UTF-8"?>
<svg width="21px" height="19px" viewBox="0 0 21 19" version="1.1" xmlns="http://www.w3.org/2000/svg" xmlns:xlink="http://www.w3.org/1999/xlink">
    <title>471DB487-D880-4383-9267-74154FE9FE3F</title>
    <defs>
        <path d="M10.2543796,6.91305232 C10.2543796,6.91305232 7.06100586,7.65361639 3.49762456,3.4882866 C3.49762456,3.4882866 2.10927279,6.21887644 4.51596878,7.88473387 C4.51596878,7.88473387 3.72956549,8.02362394 3.08095433,7.5611145 C3.08095433,7.5611145 2.80317419,9.92114782 5.6726541,10.8467157 L4.14541225,10.8467157 C4.14541225,10.8467157 4.56235696,12.7442395 7.24628412,13.1606353 C7.24628412,13.1606353 6.1357125,14.6414889 2.52566852,14.548987 C2.52566852,14.548987 4.56235696,16.1223426 7.66322883,16.0759544 C7.66322883,16.0759544 13.4013652,16.3537345 16.131955,9.87448514 C16.8033485,8.2810921 16.733629,6.77416225 16.6872408,6.03332369 L18.4458746,4.46024263 L16.6872408,4.78413648 C16.6872408,4.78413648 17.8905888,3.90495682 18.0297534,3.07189087 L16.0858413,3.85856864 C16.0858413,3.85856864 14.6280445,2.53966191 12.1519035,3.07189087 C12.151629,3.07189087 9.88437207,3.53467479 10.2543796,6.91305232 Z M12.0642038,0.818259459 C13.7388,0.489 15.2427668,0.72785751 16.5093576,1.33915029 C16.5784229,1.37248318 16.6451529,1.40608915 16.7095464,1.43983106 L17.9507174,0.937544123 C19.2289826,0.420245586 20.5798679,1.50224316 20.3552276,2.86191465 C20.9639348,3.53060161 21.060509,4.64788887 20.2378815,5.38372132 L18.9648867,6.52240291 C18.9805063,7.92254977 18.788476,9.17788848 18.1988622,10.5771969 C17.1477046,13.0714244 15.6403855,14.9472783 13.7963044,16.2520692 C12.4928729,17.1743203 11.0982658,17.7599242 9.69278509,18.0750519 C8.78435652,18.2787339 8.01370075,18.3422817 7.44665805,18.3281307 C5.71567806,18.3476712 4.12125339,17.9815884 2.69869427,17.3588633 C1.85228133,16.9883462 1.23047081,16.6055666 0.856789638,16.3168954 C-0.494124942,15.2733048 0.274966715,13.1107052 1.98146593,13.1544316 C2.3090686,13.162826 2.61591662,13.1580231 2.90289876,13.1413733 C2.35950606,12.4971182 2.07106899,11.8492752 1.95393241,11.3161842 C1.91325031,11.1310391 1.9030971,10.9475484 1.9197146,10.7703857 C1.80694334,10.6343322 1.70182376,10.4931665 1.60438546,10.3471323 C0.91390975,9.31229245 0.710185043,8.24845392 0.767372012,7.34008325 C0.773973289,7.25040675 0.773973289,7.25040675 0.779919173,7.19670647 C0.810973018,6.93287153 0.895735222,6.69472166 1.02020394,6.48846093 C0.654546824,5.3236059 0.737552179,4.15226782 1.08204083,3.04943445 C1.19408396,2.69074369 1.31204051,2.41020627 1.40776545,2.22193587 C1.97811557,1.10017965 3.50538214,0.918121694 4.32344128,1.87437246 C5.61148439,3.3799998 6.88373769,4.27520806 8.09711909,4.70898899 C8.24765478,4.76280514 8.39227661,4.80801272 8.53062504,4.84549139 C8.91686274,2.40747132 10.521664,0.949308391 12.0642038,0.818259459 Z M3.81821542,6.00481302 C3.81856892,6.00478199 3.81672167,6.00499719 3.81437654,6.00530277 L3.81821542,6.00481302 Z" id="path-1"></path>
    </defs>
    <g id="Page-1" stroke="none" stroke-width="1" fill="none" fill-rule="evenodd">
        <g id="Home--Main" transform="translate(-199.000000, -695.000000)">
            <g id="Group-8" transform="translate(158.000000, 689.000000)">
                <g id="facebook-copy" transform="translate(41.000000, 6.000000)">
                    <mask id="mask-2" fill="white">
                        <use xlink:href="#path-1"></use>
                    </mask>
                    <use id="icon/social/twitter_24px" fill="#236CD9" fill-rule="nonzero" xlink:href="#path-1"></use>
                </g>
            </g>
        </g>
    </g>
</svg>